<svg xmlns="http://www.w3.org/2000/svg" width="885" height="417" viewBox="0 0 885 417" role="img" aria-label="Mandy logo">
  <title>Mandy Logo</title>
  <g fill="#86c440">
    <path d="M61 23H823V24H61Z M57 24H828V25H57Z M54 25H830V26H54Z M52 26H832V27H52Z M50 27H834V28H50Z M48 28H836V29H48Z M47 29H837V30H47Z M45 30H839V31H45Z M44 31H840V32H44Z M43 32H841V33H43Z M42 33H66V34H42Z M819 33H842V34H819Z M41 34H61V35H41Z M823 34H843V35H823Z M40 35H58V36H40Z M826 35H844V36H826Z M39 36H56V37H39Z M828 36H845V37H828Z M38 37H54V38H38Z M830 37H846V38H830Z M37 38H52V39H37Z M832 38H847V39H832Z M37 39H51V40H37Z M833 39H848V40H833Z M36 40H50V41H36Z M834 40H848V41H834Z M36 41H49V42H36Z M835 41H848V42H835Z M35 42H47V43H35Z M837 42H849V43H837Z M34 43H46V44H34Z M838 43H850V44H838Z M34 44H46V45H34Z M839 44H850V45H839Z M33 45H45V46H33Z M839 45H850V46H839Z M33 46H45V47H33Z M840 46H851V47H840Z M32 47H44V48H32Z M840 47H851V48H840Z M32 48H44V49H32Z M841 48H852V49H841Z M32 49H43V50H32Z M841 49H852V50H841Z M31 50H42V51H31Z M842 50H852V51H842Z M31 51H42V52H31Z M842 51H853V52H842Z M31 52H42V53H31Z M843 52H853V53H843Z M31 53H41V54H31Z M843 53H853V54H843Z M31 54H41V55H31Z M843 54H853V55H843Z M30 55H41V56H30Z M843 55H853V56H843Z M30 56H40V57H30Z M844 56H854V57H844Z M30 57H40V58H30Z M844 57H854V58H844Z M30 58H40V59H30Z M844 58H854V59H844Z M30 59H40V60H30Z M844 59H854V60H844Z M30 60H40V61H30Z M844 60H854V61H844Z M30 61H40V62H30Z M844 61H854V62H844Z M30 62H40V63H30Z M844 62H854V63H844Z M30 63H40V64H30Z M845 63H854V64H845Z M30 64H40V65H30Z M845 64H854V65H845Z M30 65H40V66H30Z M845 65H854V66H845Z M30 66H40V67H30Z M845 66H854V67H845Z M30 67H40V68H30Z M845 67H854V68H845Z M30 68H40V69H30Z M845 68H854V69H845Z M30 69H40V70H30Z M845 69H854V70H845Z M30 70H40V71H30Z M845 70H854V71H845Z M30 71H40V72H30Z M845 71H854V72H845Z M30 72H40V73H30Z M845 72H854V73H845Z M30 73H40V74H30Z M845 73H854V74H845Z M30 74H40V75H30Z M845 74H854V75H845Z M30 75H40V76H30Z M845 75H854V76H845Z M30 76H40V77H30Z M845 76H854V77H845Z M30 77H40V78H30Z M845 77H854V78H845Z M30 78H40V79H30Z M845 78H854V79H845Z M30 79H40V80H30Z M845 79H854V80H845Z M30 80H40V81H30Z M845 80H854V81H845Z M30 81H40V82H30Z M845 81H854V82H845Z M30 82H40V83H30Z M845 82H854V83H845Z M30 83H40V84H30Z M845 83H854V84H845Z M30 84H40V85H30Z M845 84H854V85H845Z M30 85H40V86H30Z M845 85H854V86H845Z M30 86H40V87H30Z M107 86H108V87H107Z M128 86H133V87H128Z M205 86H208V87H205Z M219 86H222V87H219Z M223 86H229V87H223Z M230 86H238V87H230Z M308 86H310V87H308Z M312 86H321V87H312Z M327 86H347V87H327Z M416 86H447V87H416Z M583 86H606V87H583Z M681 86H713V87H681Z M794 86H799V87H794Z M845 86H854V87H845Z M30 87H40V88H30Z M91 87H138V88H91Z M197 87H244V88H197Z M306 87H351V88H306Z M412 87H450V88H412Z M495 87H530V88H495Z M560 87H629V88H560Z M679 87H718V88H679Z M765 87H804V88H765Z M845 87H854V88H845Z M30 88H40V89H30Z M91 88H138V89H91Z M197 88H244V89H197Z M306 88H352V89H306Z M412 88H450V89H412Z M495 88H530V89H495Z M560 88H635V89H560Z M680 88H718V89H680Z M765 88H804V89H765Z M845 88H854V89H845Z M30 89H40V90H30Z M91 89H138V90H91Z M197 89H244V90H197Z M306 89H352V90H306Z M412 89H450V90H412Z M495 89H530V90H495Z M560 89H638V90H560Z M680 89H719V90H680Z M765 89H803V90H765Z M845 89H854V90H845Z M30 90H40V91H30Z M91 90H139V91H91Z M197 90H244V91H197Z M306 90H352V91H306Z M412 90H451V91H412Z M495 90H530V91H495Z M560 90H640V91H560Z M680 90H719V91H680Z M765 90H803V91H765Z M845 90H854V91H845Z M30 91H40V92H30Z M90 91H139V92H90Z M196 91H244V92H196Z M305 91H352V92H305Z M412 91H451V92H412Z M495 91H530V92H495Z M560 91H643V92H560Z M680 91H720V92H680Z M764 91H803V92H764Z M845 91H854V92H845Z M30 92H40V93H30Z M90 92H139V93H90Z M196 92H244V93H196Z M305 92H352V93H305Z M412 92H451V93H412Z M495 92H530V93H495Z M560 92H644V93H560Z M680 92H720V93H680Z M764 92H802V93H764Z M845 92H854V93H845Z M30 93H40V94H30Z M90 93H139V94H90Z M196 93H244V94H196Z M305 93H352V94H305Z M412 93H452V94H412Z M495 93H530V94H495Z M560 93H646V94H560Z M681 93H720V94H681Z M764 93H802V94H764Z M845 93H854V94H845Z M30 94H40V95H30Z M90 94H139V95H90Z M196 94H244V95H196Z M305 94H352V95H305Z M412 94H452V95H412Z M495 94H530V95H495Z M560 94H648V95H560Z M681 94H720V95H681Z M764 94H802V95H764Z M845 94H854V95H845Z M30 95H40V96H30Z M90 95H140V96H90Z M196 95H244V96H196Z M304 95H352V96H304Z M412 95H453V96H412Z M495 95H530V96H495Z M560 95H650V96H560Z M682 95H721V96H682Z M763 95H801V96H763Z M845 95H854V96H845Z M30 96H40V97H30Z M90 96H140V97H90Z M196 96H244V97H196Z M304 96H353V97H304Z M412 96H453V97H412Z M495 96H530V97H495Z M560 96H651V97H560Z M682 96H721V97H682Z M763 96H801V97H763Z M845 96H854V97H845Z M30 97H40V98H30Z M90 97H140V98H90Z M196 97H244V98H196Z M304 97H353V98H304Z M412 97H453V98H412Z M495 97H530V98H495Z M559 97H652V98H559Z M682 97H721V98H682Z M763 97H800V98H763Z M845 97H854V98H845Z M30 98H40V99H30Z M90 98H140V99H90Z M195 98H244V99H195Z M304 98H353V99H304Z M412 98H453V99H412Z M495 98H530V99H495Z M559 98H653V99H559Z M683 98H721V99H683Z M763 98H800V99H763Z M845 98H854V99H845Z M30 99H40V100H30Z M90 99H141V100H90Z M195 99H244V100H195Z M304 99H353V100H304Z M412 99H454V100H412Z M495 99H530V100H495Z M559 99H655V100H559Z M683 99H721V100H683Z M763 99H800V100H763Z M845 99H854V100H845Z M30 100H40V101H30Z M90 100H141V101H90Z M195 100H244V101H195Z M304 100H354V101H304Z M412 100H454V101H412Z M495 100H530V101H495Z M560 100H656V101H560Z M683 100H722V101H683Z M762 100H799V101H762Z M845 100H854V101H845Z M30 101H40V102H30Z M90 101H141V102H90Z M194 101H244V102H194Z M304 101H354V102H304Z M412 101H454V102H412Z M495 101H530V102H495Z M560 101H657V102H560Z M684 101H722V102H684Z M762 101H799V102H762Z M845 101H854V102H845Z M30 102H40V103H30Z M90 102H141V103H90Z M194 102H244V103H194Z M303 102H354V103H303Z M412 102H455V103H412Z M495 102H530V103H495Z M560 102H657V103H560Z M684 102H722V103H684Z M761 102H798V103H761Z M845 102H854V103H845Z M30 103H40V104H30Z M90 103H141V104H90Z M194 103H244V104H194Z M303 103H354V104H303Z M412 103H455V104H412Z M495 103H530V104H495Z M560 103H658V104H560Z M685 103H722V104H685Z M761 103H798V104H761Z M845 103H854V104H845Z M30 104H40V105H30Z M90 104H141V105H90Z M194 104H244V105H194Z M303 104H354V105H303Z M412 104H456V105H412Z M495 104H530V105H495Z M560 104H659V105H560Z M685 104H723V105H685Z M761 104H797V105H761Z M845 104H854V105H845Z M30 105H40V106H30Z M90 105H141V106H90Z M193 105H244V106H193Z M303 105H355V106H303Z M412 105H456V106H412Z M495 105H530V106H495Z M560 105H660V106H560Z M685 105H723V106H685Z M761 105H797V106H761Z M845 105H854V106H845Z M30 106H40V107H30Z M90 106H142V107H90Z M193 106H244V107H193Z M303 106H355V107H303Z M412 106H457V107H412Z M495 106H530V107H495Z M560 106H661V107H560Z M686 106H724V107H686Z M760 106H797V107H760Z M845 106H854V107H845Z M30 107H40V108H30Z M90 107H142V108H90Z M193 107H244V108H193Z M302 107H355V108H302Z M412 107H457V108H412Z M495 107H530V108H495Z M560 107H661V108H560Z M686 107H724V108H686Z M760 107H797V108H760Z M845 107H854V108H845Z M30 108H40V109H30Z M90 108H142V109H90Z M193 108H244V109H193Z M302 108H355V109H302Z M412 108H458V109H412Z M495 108H530V109H495Z M560 108H662V109H560Z M686 108H724V109H686Z M760 108H796V109H760Z M845 108H854V109H845Z M30 109H40V110H30Z M90 109H143V110H90Z M192 109H244V110H192Z M302 109H356V110H302Z M412 109H458V110H412Z M495 109H530V110H495Z M560 109H663V110H560Z M686 109H725V110H686Z M759 109H796V110H759Z M845 109H854V110H845Z M30 110H40V111H30Z M90 110H143V111H90Z M192 110H244V111H192Z M302 110H356V111H302Z M412 110H458V111H412Z M495 110H530V111H495Z M560 110H663V111H560Z M687 110H725V111H687Z M759 110H796V111H759Z M845 110H854V111H845Z M30 111H40V112H30Z M90 111H143V112H90Z M192 111H244V112H192Z M302 111H356V112H302Z M412 111H459V112H412Z M495 111H530V112H495Z M560 111H664V112H560Z M687 111H725V112H687Z M759 111H795V112H759Z M845 111H854V112H845Z M30 112H40V113H30Z M90 112H143V113H90Z M191 112H244V113H191Z M301 112H356V113H301Z M412 112H459V113H412Z M495 112H530V113H495Z M560 112H664V113H560Z M687 112H725V113H687Z M758 112H795V113H758Z M845 112H854V113H845Z M30 113H40V114H30Z M90 113H144V114H90Z M191 113H244V114H191Z M301 113H356V114H301Z M412 113H459V114H412Z M495 113H530V114H495Z M560 113H664V114H560Z M688 113H726V114H688Z M758 113H795V114H758Z M845 113H854V114H845Z M30 114H40V115H30Z M90 114H144V115H90Z M191 114H244V115H191Z M301 114H357V115H301Z M412 114H460V115H412Z M495 114H530V115H495Z M560 114H665V115H560Z M688 114H726V115H688Z M758 114H794V115H758Z M845 114H854V115H845Z M30 115H40V116H30Z M90 115H144V116H90Z M191 115H244V116H191Z M301 115H357V116H301Z M412 115H460V116H412Z M495 115H530V116H495Z M560 115H665V116H560Z M689 115H726V116H689Z M757 115H794V116H757Z M845 115H854V116H845Z M30 116H40V117H30Z M90 116H144V117H90Z M191 116H244V117H191Z M300 116H357V117H300Z M412 116H460V117H412Z M495 116H530V117H495Z M560 116H665V117H560Z M689 116H727V117H689Z M757 116H793V117H757Z M845 116H854V117H845Z M30 117H40V118H30Z M90 117H144V118H90Z M190 117H244V118H190Z M300 117H357V118H300Z M412 117H460V118H412Z M495 117H530V118H495Z M560 117H666V118H560Z M690 117H727V118H690Z M757 117H793V118H757Z M845 117H854V118H845Z M30 118H40V119H30Z M90 118H145V119H90Z M190 118H244V119H190Z M300 118H357V119H300Z M412 118H461V119H412Z M495 118H530V119H495Z M560 118H666V119H560Z M690 118H727V119H690Z M757 118H793V119H757Z M845 118H854V119H845Z M30 119H40V120H30Z M90 119H145V120H90Z M190 119H244V120H190Z M300 119H357V120H300Z M412 119H461V120H412Z M495 119H530V120H495Z M560 119H666V120H560Z M690 119H727V120H690Z M756 119H792V120H756Z M845 119H854V120H845Z M30 120H40V121H30Z M90 120H145V121H90Z M190 120H244V121H190Z M299 120H358V121H299Z M412 120H462V121H412Z M495 120H530V121H495Z M560 120H598V121H560Z M619 120H667V121H619Z M691 120H727V121H691Z M756 120H792V121H756Z M845 120H854V121H845Z M30 121H40V122H30Z M90 121H146V122H90Z M190 121H244V122H190Z M299 121H358V122H299Z M412 121H462V122H412Z M495 121H530V122H495Z M560 121H597V122H560Z M622 121H667V122H622Z M691 121H727V122H691Z M756 121H791V122H756Z M845 121H854V122H845Z M30 122H40V123H30Z M90 122H146V123H90Z M190 122H244V123H190Z M299 122H358V123H299Z M412 122H463V123H412Z M495 122H530V123H495Z M560 122H597V123H560Z M624 122H668V123H624Z M692 122H728V123H692Z M756 122H791V123H756Z M845 122H854V123H845Z M30 123H40V124H30Z M90 123H146V124H90Z M189 123H244V124H189Z M299 123H358V124H299Z M412 123H463V124H412Z M495 123H530V124H495Z M560 123H597V124H560Z M626 123H668V124H626Z M692 123H728V124H692Z M755 123H791V124H755Z M845 123H854V124H845Z M30 124H40V125H30Z M90 124H146V125H90Z M189 124H244V125H189Z M299 124H358V125H299Z M412 124H463V125H412Z M495 124H530V125H495Z M560 124H597V125H560Z M627 124H668V125H627Z M692 124H729V125H692Z M755 124H791V125H755Z M845 124H854V125H845Z M30 125H40V126H30Z M90 125H147V126H90Z M189 125H244V126H189Z M298 125H358V126H298Z M412 125H464V126H412Z M495 125H530V126H495Z M560 125H597V126H560Z M628 125H668V126H628Z M693 125H729V126H693Z M755 125H790V126H755Z M845 125H854V126H845Z M30 126H40V127H30Z M90 126H147V127H90Z M189 126H244V127H189Z M298 126H358V127H298Z M412 126H464V127H412Z M495 126H530V127H495Z M560 126H597V127H560Z M629 126H668V127H629Z M693 126H729V127H693Z M754 126H790V127H754Z M845 126H854V127H845Z M30 127H40V128H30Z M90 127H147V128H90Z M189 127H244V128H189Z M298 127H359V128H298Z M412 127H465V128H412Z M495 127H530V128H495Z M560 127H597V128H560Z M630 127H669V128H630Z M693 127H730V128H693Z M754 127H790V128H754Z M845 127H854V128H845Z M30 128H40V129H30Z M90 128H147V129H90Z M188 128H244V129H188Z M298 128H359V129H298Z M412 128H465V129H412Z M495 128H530V129H495Z M560 128H597V129H560Z M630 128H669V129H630Z M693 128H730V129H693Z M754 128H789V129H754Z M845 128H854V129H845Z M30 129H40V130H30Z M90 129H148V130H90Z M188 129H244V130H188Z M298 129H359V130H298Z M412 129H465V130H412Z M495 129H530V130H495Z M560 129H597V130H560Z M631 129H669V130H631Z M694 129H730V130H694Z M753 129H789V130H753Z M845 129H854V130H845Z M30 130H40V131H30Z M90 130H148V131H90Z M188 130H244V131H188Z M298 130H359V131H298Z M412 130H466V131H412Z M495 130H530V131H495Z M560 130H597V131H560Z M631 130H669V131H631Z M694 130H730V131H694Z M753 130H789V131H753Z M845 130H854V131H845Z M30 131H40V132H30Z M90 131H148V132H90Z M187 131H244V132H187Z M298 131H360V132H298Z M412 131H466V132H412Z M495 131H530V132H495Z M560 131H597V132H560Z M632 131H669V132H632Z M694 131H731V132H694Z M753 131H788V132H753Z M845 131H854V132H845Z M30 132H40V133H30Z M90 132H148V133H90Z M187 132H244V133H187Z M297 132H360V133H297Z M412 132H466V133H412Z M495 132H530V133H495Z M560 132H597V133H560Z M632 132H669V133H632Z M695 132H731V133H695Z M752 132H788V133H752Z M845 132H854V133H845Z M30 133H40V134H30Z M90 133H148V134H90Z M187 133H244V134H187Z M297 133H360V134H297Z M412 133H466V134H412Z M495 133H530V134H495Z M560 133H597V134H560Z M632 133H669V134H632Z M695 133H731V134H695Z M752 133H788V134H752Z M845 133H854V134H845Z M30 134H40V135H30Z M90 134H148V135H90Z M187 134H244V135H187Z M297 134H360V135H297Z M412 134H467V135H412Z M495 134H530V135H495Z M560 134H597V135H560Z M632 134H669V135H632Z M696 134H732V135H696Z M752 134H787V135H752Z M845 134H854V135H845Z M30 135H40V136H30Z M90 135H148V136H90Z M186 135H244V136H186Z M297 135H361V136H297Z M412 135H467V136H412Z M495 135H530V136H495Z M560 135H597V136H560Z M633 135H670V136H633Z M696 135H732V136H696Z M751 135H787V136H751Z M845 135H854V136H845Z M30 136H40V137H30Z M90 136H149V137H90Z M186 136H244V137H186Z M297 136H361V137H297Z M412 136H467V137H412Z M495 136H530V137H495Z M560 136H597V137H560Z M633 136H670V137H633Z M696 136H732V137H696Z M751 136H786V137H751Z M845 136H854V137H845Z M30 137H40V138H30Z M90 137H149V138H90Z M186 137H244V138H186Z M296 137H361V138H296Z M412 137H468V138H412Z M495 137H530V138H495Z M560 137H597V138H560Z M633 137H670V138H633Z M697 137H732V138H697Z M751 137H786V138H751Z M845 137H854V138H845Z M30 138H40V139H30Z M90 138H149V139H90Z M186 138H244V139H186Z M296 138H361V139H296Z M412 138H468V139H412Z M495 138H530V139H495Z M560 138H597V139H560Z M633 138H670V139H633Z M697 138H733V139H697Z M751 138H785V139H751Z M845 138H854V139H845Z M30 139H40V140H30Z M90 139H150V140H90Z M185 139H244V140H185Z M296 139H361V140H296Z M412 139H469V140H412Z M495 139H530V140H495Z M560 139H597V140H560Z M633 139H670V140H633Z M698 139H733V140H698Z M750 139H785V140H750Z M845 139H854V140H845Z M30 140H40V141H30Z M90 140H150V141H90Z M185 140H244V141H185Z M295 140H362V141H295Z M412 140H469V141H412Z M495 140H530V141H495Z M560 140H597V141H560Z M633 140H670V141H633Z M698 140H733V141H698Z M750 140H785V141H750Z M845 140H854V141H845Z M30 141H40V142H30Z M90 141H150V142H90Z M185 141H244V142H185Z M295 141H328V142H295Z M329 141H362V142H329Z M412 141H470V142H412Z M495 141H530V142H495Z M560 141H597V142H560Z M633 141H670V142H633Z M699 141H734V142H699Z M750 141H785V142H750Z M845 141H854V142H845Z M30 142H40V143H30Z M90 142H151V143H90Z M185 142H244V143H185Z M295 142H327V143H295Z M330 142H362V143H330Z M412 142H470V143H412Z M495 142H530V143H495Z M560 142H597V143H560Z M633 142H670V143H633Z M699 142H734V143H699Z M750 142H784V143H750Z M845 142H854V143H845Z M30 143H40V144H30Z M90 143H151V144H90Z M184 143H244V144H184Z M295 143H326V144H295Z M330 143H362V144H330Z M412 143H471V144H412Z M495 143H530V144H495Z M560 143H597V144H560Z M633 143H670V144H633Z M699 143H734V144H699Z M750 143H784V144H750Z M845 143H854V144H845Z M30 144H40V145H30Z M90 144H151V145H90Z M184 144H244V145H184Z M295 144H326V145H295Z M330 144H362V145H330Z M412 144H471V145H412Z M495 144H530V145H495Z M560 144H597V145H560Z M633 144H670V145H633Z M699 144H734V145H699Z M749 144H784V145H749Z M845 144H854V145H845Z M30 145H40V146H30Z M90 145H151V146H90Z M184 145H244V146H184Z M294 145H326V146H294Z M330 145H363V146H330Z M412 145H471V146H412Z M495 145H530V146H495Z M560 145H597V146H560Z M633 145H670V146H633Z M699 145H734V146H699Z M749 145H784V146H749Z M845 145H854V146H845Z M30 146H40V147H30Z M90 146H151V147H90Z M183 146H244V147H183Z M294 146H326V147H294Z M330 146H363V147H330Z M412 146H472V147H412Z M495 146H530V147H495Z M560 146H597V147H560Z M633 146H670V147H633Z M700 146H735V147H700Z M749 146H783V147H749Z M845 146H854V147H845Z M30 147H40V148H30Z M90 147H152V148H90Z M183 147H244V148H183Z M294 147H326V148H294Z M330 147H363V148H330Z M412 147H472V148H412Z M495 147H530V148H495Z M560 147H597V148H560Z M633 147H670V148H633Z M700 147H735V148H700Z M748 147H783V148H748Z M845 147H854V148H845Z M30 148H40V149H30Z M90 148H152V149H90Z M183 148H244V149H183Z M294 148H326V149H294Z M330 148H363V149H330Z M412 148H472V149H412Z M495 148H530V149H495Z M560 148H597V149H560Z M633 148H670V149H633Z M700 148H735V149H700Z M748 148H782V149H748Z M845 148H854V149H845Z M30 149H40V150H30Z M90 149H152V150H90Z M183 149H244V150H183Z M293 149H326V150H293Z M331 149H364V150H331Z M412 149H473V150H412Z M495 149H530V150H495Z M560 149H597V150H560Z M633 149H670V150H633Z M701 149H736V150H701Z M748 149H782V150H748Z M845 149H854V150H845Z M30 150H40V151H30Z M90 150H153V151H90Z M183 150H244V151H183Z M293 150H325V151H293Z M331 150H364V151H331Z M412 150H473V151H412Z M495 150H530V151H495Z M560 150H597V151H560Z M633 150H670V151H633Z M701 150H736V151H701Z M747 150H782V151H747Z M845 150H854V151H845Z M30 151H40V152H30Z M90 151H153V152H90Z M183 151H244V152H183Z M293 151H325V152H293Z M331 151H364V152H331Z M412 151H473V152H412Z M495 151H530V152H495Z M560 151H597V152H560Z M633 151H670V152H633Z M701 151H736V152H701Z M747 151H781V152H747Z M845 151H854V152H845Z M30 152H40V153H30Z M90 152H153V153H90Z M183 152H244V153H183Z M293 152H325V153H293Z M331 152H364V153H331Z M412 152H474V153H412Z M495 152H530V153H495Z M560 152H597V153H560Z M633 152H670V153H633Z M702 152H737V153H702Z M746 152H781V153H746Z M845 152H854V153H845Z M30 153H40V154H30Z M90 153H153V154H90Z M182 153H244V154H182Z M293 153H325V154H293Z M332 153H364V154H332Z M412 153H474V154H412Z M495 153H530V154H495Z M560 153H597V154H560Z M633 153H670V154H633Z M702 153H737V154H702Z M746 153H781V154H746Z M845 153H854V154H845Z M30 154H40V155H30Z M90 154H153V155H90Z M182 154H244V155H182Z M292 154H325V155H292Z M332 154H364V155H332Z M412 154H474V155H412Z M495 154H530V155H495Z M560 154H597V155H560Z M633 154H670V155H633Z M703 154H737V155H703Z M746 154H780V155H746Z M845 154H854V155H845Z M30 155H40V156H30Z M90 155H154V156H90Z M182 155H244V156H182Z M292 155H324V156H292Z M332 155H364V156H332Z M412 155H475V156H412Z M495 155H530V156H495Z M560 155H597V156H560Z M633 155H670V156H633Z M703 155H737V156H703Z M745 155H780V156H745Z M845 155H854V156H845Z M30 156H40V157H30Z M90 156H154V157H90Z M182 156H244V157H182Z M292 156H324V157H292Z M332 156H364V157H332Z M412 156H475V157H412Z M495 156H530V157H495Z M560 156H597V157H560Z M633 156H670V157H633Z M704 156H738V157H704Z M745 156H779V157H745Z M845 156H854V157H845Z M30 157H40V158H30Z M90 157H154V158H90Z M181 157H244V158H181Z M292 157H324V158H292Z M332 157H365V158H332Z M412 157H476V158H412Z M495 157H530V158H495Z M560 157H597V158H560Z M633 157H670V158H633Z M704 157H738V158H704Z M745 157H779V158H745Z M845 157H854V158H845Z M30 158H40V159H30Z M90 158H154V159H90Z M181 158H244V159H181Z M292 158H324V159H292Z M332 158H365V159H332Z M412 158H476V159H412Z M495 158H530V159H495Z M560 158H597V159H560Z M633 158H670V159H633Z M704 158H738V159H704Z M745 158H778V159H745Z M845 158H854V159H845Z M30 159H40V160H30Z M90 159H154V160H90Z M181 159H244V160H181Z M292 159H324V160H292Z M332 159H365V160H332Z M412 159H477V160H412Z M495 159H530V160H495Z M560 159H597V160H560Z M633 159H670V160H633Z M705 159H739V160H705Z M745 159H778V160H745Z M845 159H854V160H845Z M30 160H40V161H30Z M90 160H154V161H90Z M180 160H244V161H180Z M292 160H323V161H292Z M333 160H365V161H333Z M412 160H477V161H412Z M495 160H530V161H495Z M560 160H597V161H560Z M633 160H670V161H633Z M705 160H739V161H705Z M744 160H778V161H744Z M845 160H854V161H845Z M30 161H40V162H30Z M90 161H154V162H90Z M180 161H244V162H180Z M291 161H323V162H291Z M333 161H366V162H333Z M412 161H477V162H412Z M495 161H530V162H495Z M560 161H597V162H560Z M633 161H670V162H633Z M705 161H739V162H705Z M744 161H778V162H744Z M845 161H854V162H845Z M30 162H40V163H30Z M90 162H155V163H90Z M180 162H244V163H180Z M291 162H323V163H291Z M333 162H366V163H333Z M412 162H478V163H412Z M495 162H530V163H495Z M560 162H597V163H560Z M633 162H670V163H633Z M705 162H740V163H705Z M744 162H778V163H744Z M845 162H854V163H845Z M30 163H40V164H30Z M90 163H155V164H90Z M180 163H244V164H180Z M291 163H323V164H291Z M333 163H366V164H333Z M412 163H478V164H412Z M495 163H530V164H495Z M560 163H597V164H560Z M633 163H670V164H633Z M706 163H740V164H706Z M743 163H777V164H743Z M845 163H854V164H845Z M30 164H40V165H30Z M90 164H155V165H90Z M179 164H244V165H179Z M291 164H323V165H291Z M333 164H366V165H333Z M412 164H478V165H412Z M495 164H530V165H495Z M560 164H597V165H560Z M633 164H670V165H633Z M706 164H740V165H706Z M743 164H777V165H743Z M845 164H854V165H845Z M30 165H40V166H30Z M90 165H155V166H90Z M179 165H244V166H179Z M291 165H323V166H291Z M333 165H367V166H333Z M412 165H479V166H412Z M495 165H530V166H495Z M560 165H597V166H560Z M633 165H670V166H633Z M706 165H740V166H706Z M743 165H777V166H743Z M845 165H854V166H845Z M30 166H40V167H30Z M90 166H156V167H90Z M179 166H244V167H179Z M290 166H322V167H290Z M334 166H367V167H334Z M412 166H479V167H412Z M495 166H530V167H495Z M560 166H597V167H560Z M633 166H670V167H633Z M707 166H776V167H707Z M845 166H854V167H845Z M30 167H40V168H30Z M90 167H156V168H90Z M179 167H244V168H179Z M290 167H322V168H290Z M334 167H367V168H334Z M412 167H479V168H412Z M495 167H530V168H495Z M560 167H597V168H560Z M633 167H670V168H633Z M707 167H776V168H707Z M845 167H854V168H845Z M30 168H40V169H30Z M90 168H156V169H90Z M178 168H244V169H178Z M290 168H322V169H290Z M334 168H368V169H334Z M412 168H479V169H412Z M495 168H530V169H495Z M560 168H597V169H560Z M633 168H670V169H633Z M707 168H775V169H707Z M845 168H854V169H845Z M30 169H40V170H30Z M90 169H124V170H90Z M126 169H156V170H126Z M178 169H244V170H178Z M290 169H322V170H290Z M335 169H368V170H335Z M412 169H480V170H412Z M495 169H530V170H495Z M560 169H597V170H560Z M633 169H670V170H633Z M708 169H775V170H708Z M845 169H854V170H845Z M30 170H40V171H30Z M90 170H124V171H90Z M127 170H156V171H127Z M178 170H244V171H178Z M289 170H321V171H289Z M335 170H368V171H335Z M412 170H480V171H412Z M495 170H530V171H495Z M560 170H597V171H560Z M633 170H670V171H633Z M708 170H775V171H708Z M845 170H854V171H845Z M30 171H40V172H30Z M90 171H123V172H90Z M127 171H157V172H127Z M178 171H207V172H178Z M209 171H244V172H209Z M289 171H321V172H289Z M335 171H368V172H335Z M412 171H481V172H412Z M495 171H530V172H495Z M560 171H597V172H560Z M633 171H670V172H633Z M708 171H774V172H708Z M845 171H854V172H845Z M30 172H40V173H30Z M90 172H123V173H90Z M127 172H157V173H127Z M177 172H206V173H177Z M209 172H244V173H209Z M289 172H321V173H289Z M335 172H368V173H335Z M412 172H481V173H412Z M495 172H530V173H495Z M560 172H597V173H560Z M633 172H670V173H633Z M709 172H774V173H709Z M845 172H854V173H845Z M30 173H40V174H30Z M90 173H123V174H90Z M128 173H157V174H128Z M177 173H206V174H177Z M209 173H244V174H209Z M288 173H321V174H288Z M335 173H369V174H335Z M412 173H482V174H412Z M495 173H530V174H495Z M560 173H597V174H560Z M633 173H670V174H633Z M709 173H774V174H709Z M845 173H854V174H845Z M30 174H40V175H30Z M90 174H123V175H90Z M128 174H158V175H128Z M177 174H206V175H177Z M210 174H244V175H210Z M288 174H321V175H288Z M335 174H369V175H335Z M412 174H482V175H412Z M495 174H530V175H495Z M560 174H597V175H560Z M633 174H670V175H633Z M710 174H773V175H710Z M845 174H854V175H845Z M30 175H40V176H30Z M90 175H123V176H90Z M128 175H158V176H128Z M177 175H205V176H177Z M210 175H244V176H210Z M288 175H320V176H288Z M336 175H369V176H336Z M412 175H448V176H412Z M449 175H482V176H449Z M495 175H530V176H495Z M560 175H597V176H560Z M633 175H670V176H633Z M710 175H773V176H710Z M845 175H854V176H845Z M30 176H40V177H30Z M90 176H123V177H90Z M128 176H158V177H128Z M177 176H205V177H177Z M210 176H244V177H210Z M288 176H320V177H288Z M336 176H369V177H336Z M412 176H447V177H412Z M450 176H483V177H450Z M495 176H530V177H495Z M560 176H597V177H560Z M633 176H670V177H633Z M710 176H772V177H710Z M845 176H854V177H845Z M30 177H40V178H30Z M90 177H123V178H90Z M129 177H158V178H129Z M177 177H205V178H177Z M210 177H244V178H210Z M288 177H320V178H288Z M336 177H369V178H336Z M412 177H447V178H412Z M451 177H483V178H451Z M495 177H530V178H495Z M560 177H597V178H560Z M633 177H670V178H633Z M711 177H772V178H711Z M845 177H854V178H845Z M30 178H40V179H30Z M90 178H123V179H90Z M129 178H159V179H129Z M177 178H205V179H177Z M210 178H244V179H210Z M287 178H320V179H287Z M336 178H370V179H336Z M412 178H447V179H412Z M451 178H484V179H451Z M495 178H530V179H495Z M560 178H597V179H560Z M633 178H670V179H633Z M711 178H772V179H711Z M845 178H854V179H845Z M30 179H40V180H30Z M90 179H123V180H90Z M129 179H159V180H129Z M176 179H205V180H176Z M210 179H244V180H210Z M287 179H320V180H287Z M336 179H370V180H336Z M412 179H447V180H412Z M451 179H484V180H451Z M495 179H530V180H495Z M560 179H597V180H560Z M633 179H670V180H633Z M711 179H772V180H711Z M845 179H854V180H845Z M30 180H40V181H30Z M90 180H123V181H90Z M129 180H159V181H129Z M176 180H204V181H176Z M210 180H244V181H210Z M287 180H320V181H287Z M336 180H370V181H336Z M412 180H447V181H412Z M451 180H484V181H451Z M495 180H530V181H495Z M560 180H597V181H560Z M633 180H670V181H633Z M712 180H771V181H712Z M845 180H854V181H845Z M30 181H40V182H30Z M90 181H123V182H90Z M130 181H159V182H130Z M176 181H204V182H176Z M210 181H244V182H210Z M287 181H320V182H287Z M336 181H370V182H336Z M412 181H447V182H412Z M452 181H485V182H452Z M495 181H530V182H495Z M560 181H597V182H560Z M633 181H670V182H633Z M712 181H771V182H712Z M845 181H854V182H845Z M30 182H40V183H30Z M90 182H123V183H90Z M130 182H159V183H130Z M175 182H204V183H175Z M210 182H244V183H210Z M287 182H320V183H287Z M336 182H370V183H336Z M412 182H447V183H412Z M452 182H485V183H452Z M495 182H530V183H495Z M560 182H597V183H560Z M633 182H670V183H633Z M712 182H771V183H712Z M845 182H854V183H845Z M30 183H40V184H30Z M90 183H123V184H90Z M130 183H160V184H130Z M175 183H203V184H175Z M210 183H244V184H210Z M286 183H320V184H286Z M336 183H371V184H336Z M412 183H447V184H412Z M453 183H485V184H453Z M495 183H530V184H495Z M560 183H597V184H560Z M633 183H670V184H633Z M712 183H770V184H712Z M845 183H854V184H845Z M30 184H40V185H30Z M90 184H123V185H90Z M131 184H160V185H131Z M175 184H203V185H175Z M210 184H244V185H210Z M286 184H319V185H286Z M337 184H371V185H337Z M412 184H447V185H412Z M453 184H485V185H453Z M495 184H530V185H495Z M560 184H597V185H560Z M633 184H670V185H633Z M713 184H770V185H713Z M845 184H854V185H845Z M30 185H40V186H30Z M90 185H123V186H90Z M131 185H160V186H131Z M175 185H203V186H175Z M210 185H244V186H210Z M286 185H319V186H286Z M337 185H371V186H337Z M412 185H447V186H412Z M453 185H486V186H453Z M495 185H530V186H495Z M560 185H597V186H560Z M633 185H670V186H633Z M713 185H770V186H713Z M845 185H854V186H845Z M30 186H40V187H30Z M90 186H123V187H90Z M131 186H160V187H131Z M174 186H202V187H174Z M210 186H244V187H210Z M286 186H319V187H286Z M337 186H371V187H337Z M412 186H447V187H412Z M454 186H486V187H454Z M495 186H530V187H495Z M560 186H597V187H560Z M633 186H670V187H633Z M713 186H769V187H713Z M845 186H854V187H845Z M30 187H40V188H30Z M90 187H123V188H90Z M132 187H161V188H132Z M174 187H202V188H174Z M210 187H244V188H210Z M285 187H319V188H285Z M337 187H371V188H337Z M412 187H447V188H412Z M455 187H487V188H455Z M495 187H530V188H495Z M560 187H597V188H560Z M633 187H670V188H633Z M714 187H769V188H714Z M845 187H854V188H845Z M30 188H40V189H30Z M90 188H123V189H90Z M132 188H161V189H132Z M174 188H202V189H174Z M210 188H244V189H210Z M285 188H319V189H285Z M337 188H371V189H337Z M412 188H447V189H412Z M455 188H487V189H455Z M495 188H530V189H495Z M560 188H597V189H560Z M633 188H670V189H633Z M714 188H768V189H714Z M845 188H854V189H845Z M30 189H40V190H30Z M90 189H123V190H90Z M132 189H161V190H132Z M174 189H201V190H174Z M210 189H244V190H210Z M285 189H319V190H285Z M337 189H371V190H337Z M412 189H447V190H412Z M456 189H488V190H456Z M495 189H530V190H495Z M560 189H597V190H560Z M633 189H670V190H633Z M715 189H768V190H715Z M845 189H854V190H845Z M30 190H40V191H30Z M90 190H123V191H90Z M132 190H161V191H132Z M173 190H201V191H173Z M210 190H244V191H210Z M285 190H318V191H285Z M338 190H371V191H338Z M412 190H447V191H412Z M456 190H488V191H456Z M495 190H530V191H495Z M560 190H597V191H560Z M633 190H670V191H633Z M715 190H767V191H715Z M845 190H854V191H845Z M30 191H40V192H30Z M90 191H123V192H90Z M132 191H161V192H132Z M173 191H201V192H173Z M210 191H244V192H210Z M285 191H318V192H285Z M338 191H372V192H338Z M412 191H447V192H412Z M457 191H489V192H457Z M495 191H530V192H495Z M560 191H597V192H560Z M633 191H670V192H633Z M716 191H767V192H716Z M845 191H854V192H845Z M30 192H40V193H30Z M90 192H123V193H90Z M132 192H161V193H132Z M173 192H201V193H173Z M210 192H244V193H210Z M285 192H318V193H285Z M338 192H372V193H338Z M412 192H447V193H412Z M457 192H489V193H457Z M495 192H530V193H495Z M560 192H597V193H560Z M633 192H670V193H633Z M716 192H767V193H716Z M845 192H854V193H845Z M30 193H40V194H30Z M90 193H123V194H90Z M133 193H162V194H133Z M172 193H200V194H172Z M210 193H244V194H210Z M285 193H318V194H285Z M338 193H372V194H338Z M412 193H447V194H412Z M457 193H489V194H457Z M495 193H530V194H495Z M560 193H597V194H560Z M633 193H670V194H633Z M716 193H766V194H716Z M845 193H854V194H845Z M30 194H40V195H30Z M90 194H123V195H90Z M133 194H162V195H133Z M172 194H200V195H172Z M210 194H244V195H210Z M285 194H317V195H285Z M338 194H373V195H338Z M412 194H447V195H412Z M457 194H490V195H457Z M495 194H530V195H495Z M560 194H597V195H560Z M633 194H670V195H633Z M717 194H766V195H717Z M845 194H854V195H845Z M30 195H40V196H30Z M90 195H123V196H90Z M133 195H162V196H133Z M172 195H200V196H172Z M210 195H244V196H210Z M284 195H317V196H284Z M339 195H373V196H339Z M412 195H447V196H412Z M458 195H490V196H458Z M495 195H530V196H495Z M560 195H597V196H560Z M633 195H670V196H633Z M717 195H766V196H717Z M845 195H854V196H845Z M30 196H40V197H30Z M90 196H123V197H90Z M133 196H162V197H133Z M172 196H200V197H172Z M210 196H244V197H210Z M284 196H317V197H284Z M339 196H373V197H339Z M412 196H447V197H412Z M458 196H491V197H458Z M495 196H530V197H495Z M560 196H597V197H560Z M633 196H670V197H633Z M718 196H765V197H718Z M845 196H854V197H845Z M30 197H40V198H30Z M90 197H123V198H90Z M133 197H163V198H133Z M172 197H200V198H172Z M210 197H244V198H210Z M284 197H317V198H284Z M339 197H373V198H339Z M412 197H447V198H412Z M458 197H491V198H458Z M495 197H530V198H495Z M560 197H597V198H560Z M633 197H670V198H633Z M718 197H765V198H718Z M845 197H854V198H845Z M30 198H40V199H30Z M90 198H123V199H90Z M134 198H163V199H134Z M171 198H199V199H171Z M210 198H244V199H210Z M284 198H317V199H284Z M339 198H373V199H339Z M412 198H447V199H412Z M459 198H491V199H459Z M495 198H530V199H495Z M560 198H597V199H560Z M633 198H670V199H633Z M718 198H765V199H718Z M845 198H854V199H845Z M30 199H40V200H30Z M90 199H123V200H90Z M134 199H163V200H134Z M171 199H199V200H171Z M210 199H244V200H210Z M283 199H317V200H283Z M339 199H374V200H339Z M412 199H447V200H412Z M459 199H492V200H459Z M495 199H530V200H495Z M560 199H597V200H560Z M633 199H670V200H633Z M718 199H765V200H718Z M845 199H854V200H845Z M30 200H40V201H30Z M90 200H123V201H90Z M134 200H163V201H134Z M171 200H199V201H171Z M209 200H244V201H209Z M283 200H316V201H283Z M340 200H374V201H340Z M412 200H447V201H412Z M459 200H492V201H459Z M495 200H530V201H495Z M560 200H597V201H560Z M633 200H670V201H633Z M719 200H764V201H719Z M845 200H854V201H845Z M30 201H40V202H30Z M90 201H123V202H90Z M134 201H163V202H134Z M171 201H199V202H171Z M209 201H244V202H209Z M283 201H316V202H283Z M340 201H374V202H340Z M412 201H447V202H412Z M460 201H492V202H460Z M495 201H530V202H495Z M560 201H597V202H560Z M633 201H670V202H633Z M719 201H764V202H719Z M845 201H854V202H845Z M30 202H40V203H30Z M90 202H123V203H90Z M135 202H164V203H135Z M171 202H199V203H171Z M209 202H244V203H209Z M283 202H316V203H283Z M340 202H374V203H340Z M412 202H447V203H412Z M460 202H492V203H460Z M495 202H530V203H495Z M560 202H597V203H560Z M633 202H670V203H633Z M719 202H764V203H719Z M845 202H854V203H845Z M30 203H40V204H30Z M91 203H123V204H91Z M135 203H164V204H135Z M170 203H199V204H170Z M209 203H244V204H209Z M283 203H316V204H283Z M340 203H375V204H340Z M412 203H447V204H412Z M461 203H493V204H461Z M495 203H530V204H495Z M560 203H597V204H560Z M633 203H670V204H633Z M719 203H763V204H719Z M845 203H854V204H845Z M30 204H40V205H30Z M91 204H123V205H91Z M135 204H164V205H135Z M170 204H198V205H170Z M209 204H244V205H209Z M282 204H316V205H282Z M340 204H375V205H340Z M412 204H447V205H412Z M461 204H530V205H461Z M560 204H597V205H560Z M633 204H670V205H633Z M720 204H763V205H720Z M845 204H854V205H845Z M30 205H40V206H30Z M91 205H123V206H91Z M136 205H165V206H136Z M170 205H198V206H170Z M209 205H244V206H209Z M282 205H315V206H282Z M340 205H375V206H340Z M412 205H447V206H412Z M461 205H530V206H461Z M560 205H597V206H560Z M633 205H670V206H633Z M720 205H762V206H720Z M845 205H854V206H845Z M30 206H40V207H30Z M91 206H123V207H91Z M136 206H165V207H136Z M170 206H198V207H170Z M209 206H244V207H209Z M282 206H315V207H282Z M341 206H375V207H341Z M412 206H447V207H412Z M462 206H530V207H462Z M560 206H597V207H560Z M633 206H670V207H633Z M721 206H762V207H721Z M845 206H854V207H845Z M30 207H40V208H30Z M91 207H123V208H91Z M136 207H165V208H136Z M170 207H198V208H170Z M209 207H244V208H209Z M282 207H315V208H282Z M341 207H376V208H341Z M412 207H447V208H412Z M462 207H530V208H462Z M560 207H597V208H560Z M633 207H670V208H633Z M721 207H762V208H721Z M845 207H854V208H845Z M30 208H40V209H30Z M91 208H123V209H91Z M137 208H165V209H137Z M169 208H197V209H169Z M209 208H244V209H209Z M281 208H315V209H281Z M341 208H376V209H341Z M412 208H447V209H412Z M463 208H530V209H463Z M560 208H597V209H560Z M633 208H670V209H633Z M721 208H761V209H721Z M845 208H854V209H845Z M30 209H40V210H30Z M90 209H123V210H90Z M137 209H165V210H137Z M169 209H197V210H169Z M209 209H244V210H209Z M281 209H315V210H281Z M341 209H376V210H341Z M412 209H447V210H412Z M463 209H530V210H463Z M560 209H597V210H560Z M633 209H670V210H633Z M722 209H761V210H722Z M845 209H854V210H845Z M30 210H40V211H30Z M90 210H123V211H90Z M137 210H166V211H137Z M168 210H197V211H168Z M209 210H244V211H209Z M281 210H314V211H281Z M342 210H376V211H342Z M412 210H447V211H412Z M463 210H530V211H463Z M560 210H597V211H560Z M633 210H670V211H633Z M722 210H760V211H722Z M844 210H854V211H844Z M30 211H40V212H30Z M90 211H123V212H90Z M137 211H166V212H137Z M168 211H196V212H168Z M209 211H244V212H209Z M281 211H314V212H281Z M342 211H376V212H342Z M412 211H447V212H412Z M463 211H530V212H463Z M560 211H597V212H560Z M633 211H670V212H633Z M722 211H760V212H722Z M844 211H854V212H844Z M30 212H40V213H30Z M90 212H123V213H90Z M138 212H167V213H138Z M168 212H196V213H168Z M209 212H244V213H209Z M280 212H314V213H280Z M342 212H376V213H342Z M412 212H447V213H412Z M464 212H530V213H464Z M560 212H597V213H560Z M633 212H670V213H633Z M723 212H760V213H723Z M844 212H854V213H844Z M30 213H40V214H30Z M90 213H123V214H90Z M138 213H196V214H138Z M209 213H244V214H209Z M280 213H314V214H280Z M342 213H377V214H342Z M412 213H447V214H412Z M464 213H530V214H464Z M560 213H597V214H560Z M633 213H670V214H633Z M723 213H760V214H723Z M844 213H854V214H844Z M30 214H40V215H30Z M90 214H123V215H90Z M138 214H196V215H138Z M210 214H244V215H210Z M280 214H314V215H280Z M342 214H377V215H342Z M412 214H447V215H412Z M465 214H530V215H465Z M560 214H597V215H560Z M633 214H670V215H633Z M723 214H760V215H723Z M844 214H854V215H844Z M30 215H40V216H30Z M90 215H123V216H90Z M138 215H196V216H138Z M210 215H244V216H210Z M280 215H313V216H280Z M342 215H377V216H342Z M412 215H447V216H412Z M465 215H530V216H465Z M560 215H597V216H560Z M633 215H670V216H633Z M723 215H760V216H723Z M844 215H854V216H844Z M30 216H40V217H30Z M90 216H123V217H90Z M139 216H195V217H139Z M210 216H244V217H210Z M280 216H313V217H280Z M342 216H377V217H342Z M412 216H447V217H412Z M465 216H530V217H465Z M560 216H597V217H560Z M633 216H670V217H633Z M723 216H760V217H723Z M844 216H854V217H844Z M30 217H40V218H30Z M90 217H123V218H90Z M139 217H195V218H139Z M210 217H244V218H210Z M280 217H313V218H280Z M342 217H377V218H342Z M412 217H447V218H412Z M466 217H530V218H466Z M560 217H597V218H560Z M633 217H670V218H633Z M723 217H760V218H723Z M844 217H854V218H844Z M30 218H40V219H30Z M90 218H123V219H90Z M139 218H195V219H139Z M210 218H244V219H210Z M279 218H313V219H279Z M342 218H377V219H342Z M412 218H447V219H412Z M466 218H530V219H466Z M560 218H597V219H560Z M633 218H670V219H633Z M723 218H759V219H723Z M844 218H854V219H844Z M30 219H40V220H30Z M90 219H123V220H90Z M139 219H195V220H139Z M210 219H244V220H210Z M279 219H313V220H279Z M342 219H377V220H342Z M412 219H447V220H412Z M467 219H530V220H467Z M560 219H597V220H560Z M633 219H670V220H633Z M723 219H759V220H723Z M844 219H854V220H844Z M30 220H40V221H30Z M90 220H123V221H90Z M139 220H194V221H139Z M210 220H244V221H210Z M279 220H313V221H279Z M343 220H378V221H343Z M412 220H447V221H412Z M467 220H530V221H467Z M560 220H597V221H560Z M633 220H670V221H633Z M723 220H759V221H723Z M844 220H854V221H844Z M30 221H40V222H30Z M90 221H123V222H90Z M139 221H194V222H139Z M210 221H244V222H210Z M279 221H313V222H279Z M343 221H378V222H343Z M412 221H447V222H412Z M468 221H530V222H468Z M560 221H597V222H560Z M633 221H670V222H633Z M723 221H759V222H723Z M844 221H854V222H844Z M30 222H40V223H30Z M90 222H123V223H90Z M140 222H194V223H140Z M210 222H244V223H210Z M279 222H314V223H279Z M342 222H378V223H342Z M412 222H447V223H412Z M468 222H530V223H468Z M560 222H597V223H560Z M633 222H670V223H633Z M723 222H759V223H723Z M844 222H854V223H844Z M30 223H40V224H30Z M90 223H123V224H90Z M140 223H193V224H140Z M210 223H244V224H210Z M279 223H378V224H279Z M412 223H447V224H412Z M469 223H530V224H469Z M560 223H597V224H560Z M633 223H670V224H633Z M723 223H759V224H723Z M844 223H854V224H844Z M30 224H40V225H30Z M91 224H123V225H91Z M140 224H193V225H140Z M210 224H244V225H210Z M279 224H379V225H279Z M412 224H447V225H412Z M469 224H530V225H469Z M560 224H597V225H560Z M633 224H670V225H633Z M723 224H759V225H723Z M844 224H854V225H844Z M30 225H40V226H30Z M91 225H123V226H91Z M140 225H193V226H140Z M210 225H244V226H210Z M278 225H379V226H278Z M412 225H447V226H412Z M469 225H530V226H469Z M560 225H597V226H560Z M633 225H670V226H633Z M723 225H759V226H723Z M844 225H854V226H844Z M30 226H40V227H30Z M91 226H123V227H91Z M140 226H193V227H140Z M210 226H244V227H210Z M278 226H379V227H278Z M412 226H447V227H412Z M470 226H530V227H470Z M560 226H597V227H560Z M633 226H670V227H633Z M723 226H759V227H723Z M844 226H854V227H844Z M30 227H40V228H30Z M91 227H123V228H91Z M141 227H192V228H141Z M210 227H244V228H210Z M278 227H380V228H278Z M412 227H447V228H412Z M470 227H530V228H470Z M560 227H597V228H560Z M633 227H670V228H633Z M723 227H759V228H723Z M844 227H854V228H844Z M30 228H40V229H30Z M91 228H123V229H91Z M141 228H192V229H141Z M210 228H244V229H210Z M278 228H380V229H278Z M412 228H447V229H412Z M470 228H530V229H470Z M560 228H597V229H560Z M633 228H670V229H633Z M723 228H759V229H723Z M844 228H854V229H844Z M30 229H40V230H30Z M91 229H123V230H91Z M141 229H192V230H141Z M210 229H244V230H210Z M277 229H380V230H277Z M412 229H447V230H412Z M470 229H530V230H470Z M560 229H597V230H560Z M633 229H670V230H633Z M723 229H759V230H723Z M844 229H854V230H844Z M30 230H40V231H30Z M91 230H123V231H91Z M141 230H192V231H141Z M210 230H244V231H210Z M277 230H380V231H277Z M412 230H447V231H412Z M471 230H530V231H471Z M560 230H597V231H560Z M633 230H670V231H633Z M723 230H759V231H723Z M844 230H854V231H844Z M30 231H40V232H30Z M91 231H123V232H91Z M142 231H192V232H142Z M210 231H244V232H210Z M277 231H380V232H277Z M412 231H447V232H412Z M471 231H530V232H471Z M560 231H597V232H560Z M633 231H670V232H633Z M723 231H759V232H723Z M844 231H854V232H844Z M30 232H40V233H30Z M91 232H123V233H91Z M142 232H192V233H142Z M210 232H244V233H210Z M276 232H380V233H276Z M412 232H447V233H412Z M471 232H530V233H471Z M560 232H597V233H560Z M633 232H670V233H633Z M723 232H759V233H723Z M844 232H854V233H844Z M30 233H40V234H30Z M91 233H123V234H91Z M142 233H191V234H142Z M210 233H244V234H210Z M276 233H381V234H276Z M412 233H447V234H412Z M472 233H530V234H472Z M560 233H597V234H560Z M633 233H670V234H633Z M723 233H759V234H723Z M845 233H854V234H845Z M30 234H40V235H30Z M91 234H123V235H91Z M143 234H191V235H143Z M210 234H244V235H210Z M276 234H381V235H276Z M412 234H447V235H412Z M472 234H530V235H472Z M560 234H597V235H560Z M633 234H670V235H633Z M723 234H759V235H723Z M845 234H854V235H845Z M30 235H40V236H30Z M90 235H123V236H90Z M143 235H191V236H143Z M210 235H244V236H210Z M276 235H381V236H276Z M412 235H447V236H412Z M473 235H530V236H473Z M560 235H597V236H560Z M633 235H670V236H633Z M723 235H759V236H723Z M845 235H854V236H845Z M30 236H40V237H30Z M90 236H123V237H90Z M143 236H191V237H143Z M210 236H244V237H210Z M276 236H381V237H276Z M412 236H447V237H412Z M473 236H530V237H473Z M560 236H597V237H560Z M633 236H670V237H633Z M723 236H759V237H723Z M845 236H854V237H845Z M30 237H40V238H30Z M90 237H123V238H90Z M144 237H191V238H144Z M210 237H244V238H210Z M275 237H382V238H275Z M412 237H447V238H412Z M474 237H530V238H474Z M560 237H597V238H560Z M633 237H670V238H633Z M723 237H759V238H723Z M845 237H854V238H845Z M30 238H40V239H30Z M90 238H123V239H90Z M144 238H190V239H144Z M210 238H244V239H210Z M275 238H382V239H275Z M412 238H447V239H412Z M474 238H530V239H474Z M560 238H597V239H560Z M633 238H670V239H633Z M723 238H759V239H723Z M845 238H854V239H845Z M30 239H40V240H30Z M90 239H123V240H90Z M144 239H190V240H144Z M210 239H244V240H210Z M275 239H382V240H275Z M412 239H447V240H412Z M475 239H530V240H475Z M560 239H597V240H560Z M633 239H670V240H633Z M723 239H759V240H723Z M845 239H854V240H845Z M30 240H40V241H30Z M91 240H123V241H91Z M144 240H190V241H144Z M210 240H244V241H210Z M275 240H382V241H275Z M412 240H447V241H412Z M475 240H530V241H475Z M560 240H597V241H560Z M633 240H670V241H633Z M723 240H759V241H723Z M845 240H854V241H845Z M30 241H40V242H30Z M91 241H123V242H91Z M144 241H189V242H144Z M210 241H244V242H210Z M274 241H383V242H274Z M412 241H447V242H412Z M476 241H530V242H476Z M560 241H597V242H560Z M633 241H670V242H633Z M723 241H759V242H723Z M845 241H854V242H845Z M30 242H40V243H30Z M90 242H123V243H90Z M145 242H189V243H145Z M210 242H244V243H210Z M274 242H383V243H274Z M412 242H447V243H412Z M476 242H530V243H476Z M560 242H597V243H560Z M633 242H670V243H633Z M723 242H759V243H723Z M845 242H854V243H845Z M30 243H40V244H30Z M90 243H123V244H90Z M145 243H189V244H145Z M210 243H244V244H210Z M274 243H383V244H274Z M412 243H447V244H412Z M476 243H530V244H476Z M560 243H597V244H560Z M633 243H670V244H633Z M723 243H759V244H723Z M845 243H854V244H845Z M30 244H40V245H30Z M90 244H123V245H90Z M145 244H189V245H145Z M210 244H244V245H210Z M274 244H383V245H274Z M412 244H447V245H412Z M476 244H530V245H476Z M560 244H597V245H560Z M632 244H669V245H632Z M723 244H759V245H723Z M845 244H854V245H845Z M30 245H40V246H30Z M90 245H123V246H90Z M145 245H188V246H145Z M210 245H244V246H210Z M273 245H383V246H273Z M412 245H447V246H412Z M476 245H530V246H476Z M560 245H597V246H560Z M632 245H669V246H632Z M723 245H759V246H723Z M845 245H854V246H845Z M30 246H40V247H30Z M90 246H123V247H90Z M145 246H188V247H145Z M210 246H244V247H210Z M273 246H383V247H273Z M412 246H447V247H412Z M477 246H530V247H477Z M560 246H597V247H560Z M632 246H669V247H632Z M723 246H759V247H723Z M845 246H854V247H845Z M30 247H40V248H30Z M90 247H123V248H90Z M145 247H188V248H145Z M210 247H244V248H210Z M273 247H383V248H273Z M412 247H447V248H412Z M477 247H530V248H477Z M560 247H597V248H560Z M631 247H669V248H631Z M723 247H759V248H723Z M845 247H854V248H845Z M30 248H40V249H30Z M91 248H123V249H91Z M146 248H188V249H146Z M210 248H244V249H210Z M273 248H383V249H273Z M412 248H447V249H412Z M478 248H530V249H478Z M560 248H597V249H560Z M631 248H669V249H631Z M723 248H759V249H723Z M845 248H854V249H845Z M30 249H40V250H30Z M91 249H123V250H91Z M146 249H187V250H146Z M210 249H244V250H210Z M273 249H384V250H273Z M412 249H447V250H412Z M478 249H530V250H478Z M560 249H597V250H560Z M630 249H669V250H630Z M723 249H759V250H723Z M845 249H854V250H845Z M30 250H40V251H30Z M91 250H123V251H91Z M146 250H187V251H146Z M210 250H244V251H210Z M273 250H384V251H273Z M412 250H447V251H412Z M479 250H530V251H479Z M560 250H597V251H560Z M630 250H669V251H630Z M723 250H759V251H723Z M845 250H854V251H845Z M30 251H40V252H30Z M91 251H123V252H91Z M146 251H187V252H146Z M210 251H244V252H210Z M272 251H384V252H272Z M412 251H447V252H412Z M479 251H530V252H479Z M560 251H597V252H560Z M629 251H669V252H629Z M723 251H759V252H723Z M845 251H854V252H845Z M30 252H40V253H30Z M91 252H123V253H91Z M147 252H187V253H147Z M210 252H244V253H210Z M272 252H384V253H272Z M412 252H447V253H412Z M479 252H530V253H479Z M560 252H597V253H560Z M629 252H669V253H629Z M723 252H759V253H723Z M845 252H854V253H845Z M30 253H40V254H30Z M90 253H123V254H90Z M147 253H186V254H147Z M210 253H244V254H210Z M272 253H384V254H272Z M412 253H447V254H412Z M480 253H530V254H480Z M560 253H597V254H560Z M628 253H668V254H628Z M723 253H759V254H723Z M845 253H854V254H845Z M30 254H40V255H30Z M90 254H123V255H90Z M147 254H186V255H147Z M210 254H244V255H210Z M272 254H308V255H272Z M348 254H384V255H348Z M412 254H447V255H412Z M480 254H530V255H480Z M560 254H597V255H560Z M627 254H668V255H627Z M723 254H759V255H723Z M845 254H854V255H845Z M30 255H40V256H30Z M90 255H123V256H90Z M147 255H186V256H147Z M210 255H244V256H210Z M272 255H307V256H272Z M349 255H385V256H349Z M412 255H447V256H412Z M481 255H530V256H481Z M560 255H597V256H560Z M625 255H668V256H625Z M723 255H759V256H723Z M844 255H854V256H844Z M30 256H40V257H30Z M90 256H123V257H90Z M148 256H186V257H148Z M210 256H244V257H210Z M272 256H307V257H272Z M349 256H385V257H349Z M412 256H447V257H412Z M481 256H530V257H481Z M560 256H597V257H560Z M624 256H668V257H624Z M723 256H759V257H723Z M844 256H854V257H844Z M30 257H40V258H30Z M90 257H123V258H90Z M148 257H186V258H148Z M210 257H244V258H210Z M272 257H307V258H272Z M349 257H385V258H349Z M412 257H447V258H412Z M482 257H530V258H482Z M560 257H597V258H560Z M621 257H667V258H621Z M723 257H759V258H723Z M845 257H854V258H845Z M30 258H40V259H30Z M90 258H123V259H90Z M148 258H186V259H148Z M210 258H244V259H210Z M271 258H307V259H271Z M349 258H385V259H349Z M412 258H447V259H412Z M482 258H530V259H482Z M560 258H597V259H560Z M617 258H667V259H617Z M723 258H759V259H723Z M845 258H854V259H845Z M30 259H40V260H30Z M90 259H123V260H90Z M149 259H185V260H149Z M210 259H244V260H210Z M271 259H307V260H271Z M349 259H386V260H349Z M412 259H447V260H412Z M482 259H530V260H482Z M560 259H666V260H560Z M723 259H759V260H723Z M844 259H854V260H844Z M30 260H40V261H30Z M90 260H123V261H90Z M149 260H185V261H149Z M210 260H244V261H210Z M271 260H306V261H271Z M349 260H386V261H349Z M412 260H447V261H412Z M483 260H530V261H483Z M560 260H666V261H560Z M723 260H759V261H723Z M844 260H854V261H844Z M30 261H40V262H30Z M90 261H123V262H90Z M149 261H185V262H149Z M210 261H244V262H210Z M271 261H306V262H271Z M350 261H386V262H350Z M412 261H447V262H412Z M483 261H530V262H483Z M560 261H666V262H560Z M723 261H759V262H723Z M844 261H854V262H844Z M30 262H40V263H30Z M90 262H123V263H90Z M149 262H185V263H149Z M210 262H244V263H210Z M270 262H306V263H270Z M350 262H387V263H350Z M412 262H447V263H412Z M483 262H530V263H483Z M560 262H665V263H560Z M723 262H759V263H723Z M844 262H854V263H844Z M30 263H40V264H30Z M90 263H123V264H90Z M150 263H184V264H150Z M210 263H244V264H210Z M270 263H306V264H270Z M350 263H387V264H350Z M412 263H447V264H412Z M483 263H530V264H483Z M560 263H665V264H560Z M723 263H759V264H723Z M844 263H854V264H844Z M30 264H40V265H30Z M90 264H123V265H90Z M150 264H184V265H150Z M210 264H244V265H210Z M270 264H306V265H270Z M350 264H387V265H350Z M412 264H447V265H412Z M484 264H530V265H484Z M560 264H665V265H560Z M723 264H759V265H723Z M844 264H854V265H844Z M30 265H40V266H30Z M90 265H123V266H90Z M150 265H184V266H150Z M210 265H244V266H210Z M270 265H305V266H270Z M350 265H387V266H350Z M412 265H447V266H412Z M484 265H530V266H484Z M560 265H664V266H560Z M723 265H759V266H723Z M844 265H854V266H844Z M30 266H40V267H30Z M90 266H123V267H90Z M151 266H184V267H151Z M210 266H244V267H210Z M269 266H305V267H269Z M350 266H387V267H350Z M412 266H447V267H412Z M484 266H530V267H484Z M560 266H664V267H560Z M723 266H759V267H723Z M844 266H854V267H844Z M30 267H40V268H30Z M90 267H123V268H90Z M151 267H184V268H151Z M210 267H244V268H210Z M269 267H305V268H269Z M351 267H387V268H351Z M412 267H447V268H412Z M485 267H530V268H485Z M560 267H664V268H560Z M723 267H759V268H723Z M845 267H854V268H845Z M30 268H40V269H30Z M90 268H123V269H90Z M151 268H183V269H151Z M210 268H244V269H210Z M269 268H305V269H269Z M351 268H388V269H351Z M412 268H447V269H412Z M485 268H530V269H485Z M560 268H663V269H560Z M723 268H759V269H723Z M845 268H854V269H845Z M30 269H40V270H30Z M90 269H123V270H90Z M151 269H183V270H151Z M210 269H244V270H210Z M269 269H305V270H269Z M351 269H388V270H351Z M412 269H447V270H412Z M486 269H530V270H486Z M560 269H663V270H560Z M723 269H759V270H723Z M845 269H854V270H845Z M30 270H40V271H30Z M90 270H123V271H90Z M151 270H183V271H151Z M210 270H244V271H210Z M268 270H304V271H268Z M351 270H388V271H351Z M412 270H447V271H412Z M486 270H530V271H486Z M560 270H662V271H560Z M723 270H759V271H723Z M845 270H854V271H845Z M30 271H40V272H30Z M90 271H123V272H90Z M151 271H182V272H151Z M210 271H244V272H210Z M268 271H304V272H268Z M351 271H388V272H351Z M412 271H447V272H412Z M487 271H530V272H487Z M560 271H662V272H560Z M723 271H759V272H723Z M845 271H854V272H845Z M30 272H40V273H30Z M90 272H123V273H90Z M151 272H182V273H151Z M210 272H244V273H210Z M268 272H304V273H268Z M351 272H388V273H351Z M412 272H447V273H412Z M487 272H530V273H487Z M560 272H661V273H560Z M723 272H759V273H723Z M845 272H854V273H845Z M30 273H40V274H30Z M90 273H123V274H90Z M152 273H182V274H152Z M210 273H244V274H210Z M268 273H304V274H268Z M351 273H389V274H351Z M412 273H447V274H412Z M487 273H530V274H487Z M560 273H660V274H560Z M723 273H759V274H723Z M845 273H854V274H845Z M30 274H40V275H30Z M90 274H123V275H90Z M152 274H182V275H152Z M210 274H244V275H210Z M268 274H304V275H268Z M352 274H389V275H352Z M412 274H447V275H412Z M488 274H530V275H488Z M560 274H659V275H560Z M723 274H759V275H723Z M845 274H854V275H845Z M30 275H40V276H30Z M90 275H123V276H90Z M152 275H181V276H152Z M210 275H244V276H210Z M267 275H304V276H267Z M352 275H389V276H352Z M412 275H447V276H412Z M488 275H530V276H488Z M560 275H658V276H560Z M723 275H759V276H723Z M845 275H854V276H845Z M30 276H40V277H30Z M90 276H123V277H90Z M152 276H181V277H152Z M210 276H244V277H210Z M267 276H303V277H267Z M352 276H390V277H352Z M412 276H447V277H412Z M489 276H530V277H489Z M560 276H658V277H560Z M723 276H759V277H723Z M845 276H854V277H845Z M30 277H40V278H30Z M91 277H123V278H91Z M152 277H181V278H152Z M210 277H244V278H210Z M267 277H303V278H267Z M352 277H390V278H352Z M412 277H447V278H412Z M489 277H530V278H489Z M560 277H657V278H560Z M723 277H759V278H723Z M845 277H854V278H845Z M30 278H40V279H30Z M91 278H123V279H91Z M152 278H181V279H152Z M210 278H244V279H210Z M266 278H303V279H266Z M352 278H390V279H352Z M412 278H447V279H412Z M489 278H530V279H489Z M560 278H656V279H560Z M723 278H759V279H723Z M845 278H854V279H845Z M30 279H40V280H30Z M91 279H123V280H91Z M153 279H180V280H153Z M210 279H244V280H210Z M266 279H302V280H266Z M353 279H390V280H353Z M412 279H447V280H412Z M489 279H530V280H489Z M560 279H655V280H560Z M723 279H759V280H723Z M845 279H854V280H845Z M30 280H40V281H30Z M91 280H123V281H91Z M153 280H180V281H153Z M209 280H244V281H209Z M266 280H302V281H266Z M353 280H390V281H353Z M412 280H447V281H412Z M490 280H530V281H490Z M560 280H654V281H560Z M723 280H759V281H723Z M844 280H854V281H844Z M30 281H40V282H30Z M91 281H123V282H91Z M153 281H180V282H153Z M209 281H244V282H209Z M266 281H302V282H266Z M353 281H390V282H353Z M412 281H447V282H412Z M490 281H530V282H490Z M560 281H653V282H560Z M723 281H759V282H723Z M844 281H854V282H844Z M30 282H40V283H30Z M91 282H123V283H91Z M153 282H180V283H153Z M209 282H244V283H209Z M266 282H302V283H266Z M353 282H390V283H353Z M412 282H447V283H412Z M491 282H530V283H491Z M560 282H652V283H560Z M723 282H759V283H723Z M844 282H854V283H844Z M30 283H40V284H30Z M91 283H123V284H91Z M153 283H180V284H153Z M209 283H244V284H209Z M266 283H302V284H266Z M354 283H390V284H354Z M412 283H447V284H412Z M491 283H530V284H491Z M559 283H651V284H559Z M723 283H759V284H723Z M845 283H854V284H845Z M30 284H40V285H30Z M91 284H123V285H91Z M154 284H180V285H154Z M209 284H244V285H209Z M266 284H301V285H266Z M354 284H391V285H354Z M412 284H447V285H412Z M491 284H530V285H491Z M559 284H649V285H559Z M723 284H759V285H723Z M845 284H854V285H845Z M30 285H40V286H30Z M91 285H123V286H91Z M154 285H179V286H154Z M209 285H244V286H209Z M266 285H301V286H266Z M354 285H391V286H354Z M412 285H447V286H412Z M492 285H530V286H492Z M559 285H648V286H559Z M723 285H759V286H723Z M844 285H854V286H844Z M30 286H40V287H30Z M91 286H123V287H91Z M154 286H179V287H154Z M209 286H244V287H209Z M265 286H301V287H265Z M354 286H391V287H354Z M412 286H447V287H412Z M492 286H530V287H492Z M559 286H646V287H559Z M723 286H759V287H723Z M845 286H854V287H845Z M30 287H40V288H30Z M91 287H123V288H91Z M155 287H179V288H155Z M209 287H244V288H209Z M265 287H301V288H265Z M354 287H391V288H354Z M412 287H447V288H412Z M493 287H530V288H493Z M559 287H644V288H559Z M723 287H759V288H723Z M845 287H854V288H845Z M30 288H40V289H30Z M91 288H123V289H91Z M155 288H179V289H155Z M209 288H244V289H209Z M265 288H301V289H265Z M355 288H391V289H355Z M412 288H447V289H412Z M493 288H530V289H493Z M559 288H642V289H559Z M723 288H759V289H723Z M844 288H854V289H844Z M30 289H40V290H30Z M91 289H123V290H91Z M155 289H178V290H155Z M209 289H244V290H209Z M265 289H301V290H265Z M355 289H391V290H355Z M412 289H447V290H412Z M494 289H530V290H494Z M560 289H640V290H560Z M723 289H759V290H723Z M844 289H854V290H844Z M30 290H40V291H30Z M91 290H123V291H91Z M155 290H178V291H155Z M209 290H244V291H209Z M265 290H301V291H265Z M355 290H392V291H355Z M412 290H447V291H412Z M494 290H530V291H494Z M560 290H637V291H560Z M723 290H759V291H723Z M844 290H854V291H844Z M30 291H40V292H30Z M90 291H123V292H90Z M155 291H178V292H155Z M209 291H244V292H209Z M264 291H300V292H264Z M355 291H392V292H355Z M412 291H447V292H412Z M494 291H530V292H494Z M560 291H633V292H560Z M723 291H759V292H723Z M845 291H854V292H845Z M30 292H40V293H30Z M90 292H123V293H90Z M156 292H178V293H156Z M209 292H244V293H209Z M264 292H300V293H264Z M355 292H392V293H355Z M412 292H447V293H412Z M495 292H530V293H495Z M560 292H627V293H560Z M723 292H759V293H723Z M845 292H854V293H845Z M30 293H40V294H30Z M91 293H120V294H91Z M157 293H177V294H157Z M210 293H243V294H210Z M265 293H296V294H265Z M356 293H391V294H356Z M413 293H446V294H413Z M495 293H529V294H495Z M560 293H620V294H560Z M724 293H759V294H724Z M845 293H854V294H845Z M30 294H40V295H30Z M845 294H854V295H845Z M30 295H40V296H30Z M844 295H854V296H844Z M30 296H40V297H30Z M844 296H854V297H844Z M30 297H40V298H30Z M845 297H854V298H845Z M30 298H40V299H30Z M845 298H854V299H845Z M30 299H40V300H30Z M845 299H854V300H845Z M30 300H40V301H30Z M845 300H854V301H845Z M30 301H40V302H30Z M845 301H854V302H845Z M30 302H40V303H30Z M845 302H854V303H845Z M30 303H40V304H30Z M845 303H854V304H845Z M30 304H40V305H30Z M845 304H854V305H845Z M30 305H40V306H30Z M845 305H854V306H845Z M30 306H40V307H30Z M845 306H854V307H845Z M30 307H40V308H30Z M845 307H854V308H845Z M30 308H40V309H30Z M845 308H854V309H845Z M30 309H40V310H30Z M845 309H854V310H845Z M30 310H40V311H30Z M845 310H854V311H845Z M30 311H40V312H30Z M845 311H854V312H845Z M30 312H40V313H30Z M845 312H854V313H845Z M30 313H40V314H30Z M845 313H854V314H845Z M30 314H40V315H30Z M845 314H854V315H845Z M30 315H40V316H30Z M845 315H854V316H845Z M30 316H40V317H30Z M845 316H854V317H845Z M30 317H40V318H30Z M844 317H854V318H844Z M30 318H40V319H30Z M844 318H854V319H844Z M30 319H40V320H30Z M844 319H854V320H844Z M30 320H41V321H30Z M844 320H853V321H844Z M30 321H41V322H30Z M843 321H853V322H843Z M31 322H41V323H31Z M843 322H853V323H843Z M31 323H42V324H31Z M843 323H853V324H843Z M31 324H42V325H31Z M843 324H853V325H843Z M31 325H42V326H31Z M842 325H852V326H842Z M32 326H43V327H32Z M842 326H852V327H842Z M32 327H44V328H32Z M841 327H852V328H841Z M32 328H44V329H32Z M840 328H851V329H840Z M33 329H45V330H33Z M840 329H851V330H840Z M33 330H45V331H33Z M839 330H850V331H839Z M34 331H46V332H34Z M839 331H850V332H839Z M34 332H46V333H34Z M838 332H849V333H838Z M35 333H47V334H35Z M837 333H849V334H837Z M36 334H48V335H36Z M836 334H848V335H836Z M36 335H49V336H36Z M835 335H848V336H835Z M37 336H51V337H37Z M834 336H848V337H834Z M37 337H52V338H37Z M833 337H847V338H833Z M38 338H53V339H38Z M831 338H846V339H831Z M39 339H55V340H39Z M829 339H845V340H829Z M40 340H57V341H40Z M827 340H844V341H827Z M41 341H59V342H41Z M824 341H843V342H824Z M42 342H63V343H42Z M820 342H842V343H820Z M43 343H116V344H43Z M171 343H842V344H171Z M44 344H116V345H44Z M170 344H840V345H170Z M45 345H116V346H45Z M169 345H839V346H169Z M47 346H116V347H47Z M168 346H838V347H168Z M48 347H116V348H48Z M166 347H836V348H166Z M50 348H116V349H50Z M165 348H835V349H165Z M52 349H116V350H52Z M164 349H833V350H164Z M54 350H116V351H54Z M163 350H831V351H163Z M56 351H116V352H56Z M162 351H828V352H162Z M61 352H116V353H61Z M161 352H824V353H161Z M105 353H116V354H105Z M159 353H177V354H159Z M106 354H116V355H106Z M158 354H174V355H158Z M106 355H116V356H106Z M158 355H173V356H158Z M106 356H116V357H106Z M156 356H173V357H156Z M106 357H116V358H106Z M155 357H171V358H155Z M106 358H116V359H106Z M154 358H170V359H154Z M106 359H116V360H106Z M152 359H169V360H152Z M106 360H116V361H106Z M151 360H167V361H151Z M106 361H116V362H106Z M150 361H167V362H150Z M106 362H116V363H106Z M149 362H165V363H149Z M106 363H116V364H106Z M148 363H164V364H148Z M106 364H116V365H106Z M147 364H163V365H147Z M106 365H116V366H106Z M145 365H161V366H145Z M106 366H116V367H106Z M144 366H161V367H144Z M106 367H116V368H106Z M143 367H159V368H143Z M106 368H116V369H106Z M142 368H158V369H142Z M106 369H116V370H106Z M141 369H157V370H141Z M106 370H116V371H106Z M139 370H156V371H139Z M106 371H116V372H106Z M139 371H154V372H139Z M106 372H116V373H106Z M137 372H153V373H137Z M106 373H116V374H106Z M136 373H152V374H136Z M106 374H116V375H106Z M135 374H151V375H135Z M106 375H116V376H106Z M133 375H150V376H133Z M106 376H116V377H106Z M132 376H148V377H132Z M106 377H116V378H106Z M132 377H147V378H132Z M106 378H116V379H106Z M130 378H146V379H130Z M106 379H116V380H106Z M129 379H145V380H129Z M106 380H116V381H106Z M128 380H144V381H128Z M106 381H116V382H106Z M127 381H143V382H127Z M106 382H116V383H106Z M126 382H142V383H126Z M106 383H116V384H106Z M125 383H141V384H125Z M106 384H116V385H106Z M123 384H139V385H123Z M106 385H116V386H106Z M122 385H138V386H122Z M106 386H116V387H106Z M121 386H136V387H121Z M106 387H116V388H106Z M120 387H135V388H120Z M106 388H117V389H106Z M118 388H135V389H118Z M106 389H133V390H106Z M106 390H132V391H106Z M106 391H131V392H106Z M106 392H129V393H106Z M106 393H129V394H106Z M106 394H127V395H106Z M106 395H126V396H106Z M106 396H125V397H106Z M106 397H124V398H106Z M106 398H123V399H106Z M106 399H122V400H106Z M106 400H120V401H106Z M106 401H119V402H106Z M107 402H118V403H107Z M107 403H116V404H107Z M107 404H116V405H107Z M109 405H114V406H109Z"/>
  </g>
</svg>
